<mxfile host="app.diagrams.net" modified="2024-01-05T09:14:00.209Z" agent="Mozilla/5.0 (Windows NT 10.0; Win64; x64) AppleWebKit/537.36 (KHTML, like Gecko) Chrome/120.0.0.0 Safari/537.36 OPR/106.0.0.0" etag="PSykeloQFowIYE09bPIp" version="22.1.16" type="github">
  <diagram name="PÃ¡gina-1" id="pN39wXMBFtuyC5WhX6lR">
    <mxGraphModel dx="1094" dy="405" grid="1" gridSize="10" guides="1" tooltips="1" connect="1" arrows="1" fold="1" page="1" pageScale="1" pageWidth="827" pageHeight="1169" math="0" shadow="0">
      <root>
        <mxCell id="0" />
        <mxCell id="1" parent="0" />
        <mxCell id="wujke9OWW01raQN76-9f-1" value="Visitante" style="shape=umlActor;verticalLabelPosition=bottom;verticalAlign=top;html=1;outlineConnect=0;" vertex="1" parent="1">
          <mxGeometry x="30" y="100" width="30" height="60" as="geometry" />
        </mxCell>
        <mxCell id="wujke9OWW01raQN76-9f-4" value="" style="endArrow=none;html=1;rounded=0;entryX=0.031;entryY=0.605;entryDx=0;entryDy=0;entryPerimeter=0;" edge="1" parent="1" source="wujke9OWW01raQN76-9f-1" target="wujke9OWW01raQN76-9f-2">
          <mxGeometry width="50" height="50" relative="1" as="geometry">
            <mxPoint x="70" y="140" as="sourcePoint" />
            <mxPoint x="165" y="120" as="targetPoint" />
          </mxGeometry>
        </mxCell>
        <mxCell id="wujke9OWW01raQN76-9f-5" value="" style="swimlane;startSize=0;" vertex="1" parent="1">
          <mxGeometry x="130" y="50" width="210" height="390" as="geometry" />
        </mxCell>
        <mxCell id="wujke9OWW01raQN76-9f-3" value="pplware Website&amp;nbsp;" style="text;html=1;align=center;verticalAlign=middle;resizable=0;points=[];autosize=1;strokeColor=none;fillColor=none;" vertex="1" parent="wujke9OWW01raQN76-9f-5">
          <mxGeometry x="50" width="120" height="30" as="geometry" />
        </mxCell>
        <mxCell id="wujke9OWW01raQN76-9f-2" value="Feed Noticias" style="ellipse;whiteSpace=wrap;html=1;" vertex="1" parent="wujke9OWW01raQN76-9f-5">
          <mxGeometry x="45" y="140" width="120" height="40" as="geometry" />
        </mxCell>
        <mxCell id="wujke9OWW01raQN76-9f-12" value="Noticia&amp;nbsp;" style="ellipse;whiteSpace=wrap;html=1;" vertex="1" parent="wujke9OWW01raQN76-9f-5">
          <mxGeometry x="45" y="260" width="120" height="40" as="geometry" />
        </mxCell>
        <mxCell id="wujke9OWW01raQN76-9f-17" value="" style="endArrow=classic;startArrow=classic;html=1;rounded=0;" edge="1" parent="wujke9OWW01raQN76-9f-5" source="wujke9OWW01raQN76-9f-12" target="wujke9OWW01raQN76-9f-2">
          <mxGeometry width="50" height="50" relative="1" as="geometry">
            <mxPoint x="340" y="110" as="sourcePoint" />
            <mxPoint x="150" y="90" as="targetPoint" />
          </mxGeometry>
        </mxCell>
        <mxCell id="wujke9OWW01raQN76-9f-19" value="Inclui" style="edgeLabel;html=1;align=center;verticalAlign=middle;resizable=0;points=[];" vertex="1" connectable="0" parent="wujke9OWW01raQN76-9f-17">
          <mxGeometry x="0.044" y="2" relative="1" as="geometry">
            <mxPoint as="offset" />
          </mxGeometry>
        </mxCell>
        <mxCell id="wujke9OWW01raQN76-9f-20" value="Procurar Noticia" style="ellipse;whiteSpace=wrap;html=1;" vertex="1" parent="wujke9OWW01raQN76-9f-5">
          <mxGeometry x="45" y="40" width="120" height="40" as="geometry" />
        </mxCell>
        <mxCell id="wujke9OWW01raQN76-9f-21" value="" style="endArrow=classic;html=1;rounded=0;" edge="1" parent="wujke9OWW01raQN76-9f-5" source="wujke9OWW01raQN76-9f-20" target="wujke9OWW01raQN76-9f-2">
          <mxGeometry width="50" height="50" relative="1" as="geometry">
            <mxPoint x="110" y="180" as="sourcePoint" />
            <mxPoint x="160" y="130" as="targetPoint" />
          </mxGeometry>
        </mxCell>
        <mxCell id="wujke9OWW01raQN76-9f-23" value="Include" style="edgeLabel;html=1;align=center;verticalAlign=middle;resizable=0;points=[];" vertex="1" connectable="0" parent="wujke9OWW01raQN76-9f-21">
          <mxGeometry x="-0.2355" y="-1" relative="1" as="geometry">
            <mxPoint as="offset" />
          </mxGeometry>
        </mxCell>
        <mxCell id="wujke9OWW01raQN76-9f-9" value="Website Admin" style="shape=umlActor;verticalLabelPosition=bottom;verticalAlign=top;html=1;outlineConnect=0;" vertex="1" parent="1">
          <mxGeometry x="414" y="100" width="30" height="60" as="geometry" />
        </mxCell>
        <mxCell id="wujke9OWW01raQN76-9f-10" value="" style="endArrow=none;html=1;rounded=0;exitX=1;exitY=0.5;exitDx=0;exitDy=0;" edge="1" parent="1" source="wujke9OWW01raQN76-9f-2" target="wujke9OWW01raQN76-9f-9">
          <mxGeometry width="50" height="50" relative="1" as="geometry">
            <mxPoint x="240" y="230" as="sourcePoint" />
            <mxPoint x="400" y="120" as="targetPoint" />
          </mxGeometry>
        </mxCell>
        <mxCell id="wujke9OWW01raQN76-9f-13" value="" style="endArrow=none;html=1;rounded=0;entryX=0.031;entryY=0.395;entryDx=0;entryDy=0;entryPerimeter=0;" edge="1" parent="1" source="wujke9OWW01raQN76-9f-1" target="wujke9OWW01raQN76-9f-12">
          <mxGeometry width="50" height="50" relative="1" as="geometry">
            <mxPoint x="240" y="230" as="sourcePoint" />
            <mxPoint x="290" y="180" as="targetPoint" />
          </mxGeometry>
        </mxCell>
        <mxCell id="wujke9OWW01raQN76-9f-14" value="" style="endArrow=none;html=1;rounded=0;" edge="1" parent="1" source="wujke9OWW01raQN76-9f-9" target="wujke9OWW01raQN76-9f-12">
          <mxGeometry width="50" height="50" relative="1" as="geometry">
            <mxPoint x="400" y="170" as="sourcePoint" />
            <mxPoint x="179" y="186" as="targetPoint" />
          </mxGeometry>
        </mxCell>
        <mxCell id="wujke9OWW01raQN76-9f-24" value="" style="endArrow=none;html=1;rounded=0;" edge="1" parent="1" source="wujke9OWW01raQN76-9f-12" target="wujke9OWW01raQN76-9f-25">
          <mxGeometry width="50" height="50" relative="1" as="geometry">
            <mxPoint x="370" y="300" as="sourcePoint" />
            <mxPoint x="380" y="310" as="targetPoint" />
          </mxGeometry>
        </mxCell>
        <mxCell id="wujke9OWW01raQN76-9f-25" value="Bd analyst" style="shape=umlActor;verticalLabelPosition=bottom;verticalAlign=top;html=1;outlineConnect=0;" vertex="1" parent="1">
          <mxGeometry x="414" y="260" width="30" height="60" as="geometry" />
        </mxCell>
        <mxCell id="wujke9OWW01raQN76-9f-26" value="" style="endArrow=none;html=1;rounded=0;exitX=0.783;exitY=1.01;exitDx=0;exitDy=0;exitPerimeter=0;" edge="1" parent="1" source="wujke9OWW01raQN76-9f-2" target="wujke9OWW01raQN76-9f-25">
          <mxGeometry width="50" height="50" relative="1" as="geometry">
            <mxPoint x="299" y="331" as="sourcePoint" />
            <mxPoint x="390" y="300" as="targetPoint" />
          </mxGeometry>
        </mxCell>
        <mxCell id="wujke9OWW01raQN76-9f-27" value="" style="endArrow=none;html=1;rounded=0;" edge="1" parent="1" source="wujke9OWW01raQN76-9f-20" target="wujke9OWW01raQN76-9f-25">
          <mxGeometry width="50" height="50" relative="1" as="geometry">
            <mxPoint x="279" y="240" as="sourcePoint" />
            <mxPoint x="410" y="303" as="targetPoint" />
          </mxGeometry>
        </mxCell>
        <mxCell id="wujke9OWW01raQN76-9f-28" value="" style="endArrow=none;html=1;rounded=0;" edge="1" parent="1" source="wujke9OWW01raQN76-9f-20" target="wujke9OWW01raQN76-9f-1">
          <mxGeometry width="50" height="50" relative="1" as="geometry">
            <mxPoint x="70" y="149" as="sourcePoint" />
            <mxPoint x="189" y="224" as="targetPoint" />
          </mxGeometry>
        </mxCell>
      </root>
    </mxGraphModel>
  </diagram>
</mxfile>
